<svg id="logo-jivasoft" xmlns="http://www.w3.org/2000/svg" viewBox="0 0 360 114"><path class="st0" d="M18.1,64.1l6.9,9.1c0,0,60.5-60.3,153.9-61.1c93.2-1.8,161.8,61.1,161.8,61.1S282.7,2.6,178.9,2.6 C73.7,2.6,18.1,64.1,18.1,64.1z"></path><path class="st0" d="M182,51.4L182,51.4c-1.2,0-2.2-1-2.2-2.2V23.4c0-1.2,1-2.2,2.2-2.2h0c1.2,0,2.2,1,2.2,2.2v25.8 C184.2,50.4,183.2,51.4,182,51.4z"></path><path class="st1" d="M144.3,53.1L144.3,53.1c-0.4,0.1-0.9-0.1-1-0.5l-7.3-24.2c-0.1-0.4,0.1-0.9,0.5-1l0,0c0.4-0.1,0.9,0.1,1,0.5 l7.3,24.2C145,52.5,144.7,53,144.3,53.1z"></path><path class="st0" d="M106.7,56.4L106.7,56.4c-0.4,0.2-0.9,0-1.1-0.4L98,40c-0.2-0.4,0-0.9,0.4-1.1l0,0c0.4-0.2,0.9,0,1.1,0.4l7.7,16 C107.3,55.7,107.1,56.2,106.7,56.4z"></path><path class="st0" d="M74.5,63.5L74.5,63.5c-0.3,0.3-0.9,0.3-1.2-0.1l-7-7.9c-0.3-0.3-0.3-0.9,0.1-1.2l0,0c0.3-0.3,0.9-0.3,1.2,0.1 l7,7.9C74.8,62.7,74.8,63.2,74.5,63.5z"></path><path class="st1" d="M219.8,53.1L219.8,53.1c0.4,0.1,0.9-0.1,1-0.5l7.3-24.2c0.1-0.4-0.1-0.9-0.5-1l0,0c-0.4-0.1-0.9,0.1-1,0.5 l-7.3,24.2C219.1,52.5,219.4,53,219.8,53.1z"></path><path class="st0" d="M257.4,56.4L257.4,56.4c0.4,0.2,0.9,0,1.1-0.4l7.7-16c0.2-0.4,0-0.9-0.4-1.1l0,0c-0.4-0.2-0.9,0-1.1,0.4 l-7.7,16C256.8,55.7,257,56.2,257.4,56.4z"></path><path class="st0" d="M289.6,63.5L289.6,63.5c0.3,0.3,0.9,0.3,1.2-0.1l7-7.9c0.3-0.3,0.3-0.9-0.1-1.2l0,0c-0.3-0.3-0.9-0.3-1.2,0.1 l-7,7.9C289.3,62.7,289.3,63.2,289.6,63.5z"></path><g><path class="st2" d="M60.4,101.3c0,1.7-0.3,3.2-0.9,4.5c-0.6,1.3-1.5,2.4-2.5,3.2c-1.1,0.9-2.4,1.5-3.9,1.9c-1.5,0.4-3.2,0.6-5,0.6 c-1.1,0-2.2,0-3.1-0.1c-1-0.1-1.8-0.2-2.6-0.4c-0.8-0.2-1.6-0.3-2.3-0.5c-0.7-0.2-1.3-0.3-2-0.5v-2.9c0.6,0.2,1.3,0.5,2,0.7 c0.7,0.2,1.4,0.4,2.3,0.6s1.8,0.3,2.9,0.4c1.1,0.1,2.3,0.2,3.6,0.2c1.2,0,2.4-0.2,3.4-0.5c1.1-0.3,2-0.8,2.8-1.5 c0.8-0.7,1.4-1.5,1.9-2.4c0.5-0.9,0.7-2,0.7-3.3V80.1h2.8V101.3z"></path><path class="st2" d="M74.3,111.3V80.1h2.8v31.2H74.3z"></path><path class="st2" d="M107,111.3h-4.3L87.2,80.1h3.2l14.6,29.3l14.6-29.3h3.2L107,111.3z"></path><path class="st2" d="M158.5,111.3l-4.3-8.3H133l-4.3,8.3h-3.1L142,80.1h3.3l16.3,31.2H158.5z M143.7,82.8l-9.2,17.6h18.4 L143.7,82.8z"></path><path class="st2" d="M196.5,84.7c-0.6-0.3-1.3-0.6-2-0.9c-0.8-0.3-1.7-0.6-2.7-0.9c-1-0.3-2.1-0.5-3.4-0.6 c-1.2-0.2-2.6-0.3-4.1-0.3c-1.8,0-3.5,0.1-4.9,0.3c-1.4,0.2-2.6,0.5-3.6,1c-1,0.4-1.8,1-2.3,1.7c-0.5,0.7-0.8,1.5-0.8,2.4 c0,0.8,0.2,1.5,0.7,2.1c0.5,0.6,1.2,1.1,2,1.6c0.8,0.5,1.8,0.9,3,1.2c1.1,0.4,2.3,0.7,3.6,1c1.3,0.3,2.6,0.7,3.9,1 c1.3,0.3,2.6,0.7,3.9,1.1c1.3,0.4,2.5,0.8,3.6,1.3c1.1,0.5,2.1,1,3,1.7c0.8,0.6,1.5,1.4,2,2.2c0.5,0.8,0.7,1.8,0.7,2.8 c0,1.2-0.2,2.2-0.7,3.1c-0.4,0.9-1,1.6-1.8,2.3c-0.8,0.6-1.6,1.2-2.6,1.6c-1,0.4-2.1,0.7-3.2,1c-1.1,0.2-2.3,0.4-3.5,0.5 c-1.2,0.1-2.4,0.1-3.6,0.1c-2.7,0-5.2-0.2-7.4-0.6c-2.2-0.4-4.3-0.9-6.3-1.6v-3.5c2.1,1.2,4.2,2.1,6.5,2.5c2.3,0.5,4.7,0.7,7.2,0.7 c1.8,0,3.4-0.1,5-0.3c1.5-0.2,2.8-0.5,3.9-1c1.1-0.5,2-1.1,2.6-1.8c0.6-0.7,0.9-1.7,0.9-2.7c0-0.9-0.2-1.6-0.7-2.3 c-0.5-0.7-1.2-1.2-2-1.7c-0.8-0.5-1.8-0.9-3-1.3c-1.1-0.4-2.3-0.7-3.6-1.1c-1.3-0.3-2.6-0.6-3.9-1c-1.3-0.3-2.6-0.6-3.9-1 c-1.3-0.4-2.5-0.8-3.6-1.2c-1.1-0.5-2.1-1-3-1.6c-0.8-0.6-1.5-1.3-2-2.1c-0.5-0.8-0.7-1.7-0.7-2.8c0-1,0.2-2,0.6-2.8 c0.4-0.8,0.9-1.5,1.6-2.1c0.7-0.6,1.5-1.1,2.4-1.5c0.9-0.4,1.9-0.7,3-1c1.1-0.2,2.1-0.4,3.3-0.5c1.1-0.1,2.3-0.2,3.4-0.2 c1.2,0,2.4,0.1,3.4,0.2c1.1,0.1,2.1,0.2,3.1,0.4c1,0.2,2,0.4,3,0.6c1,0.2,1.9,0.5,2.9,0.7V84.7z"></path><path class="st2" d="M248.9,95.7c0,2.8-0.5,5.2-1.5,7.3c-1,2-2.4,3.7-4.2,5c-1.8,1.3-3.9,2.3-6.3,2.9c-2.4,0.6-5,1-7.8,1 c-2.8,0-5.4-0.3-7.8-1c-2.4-0.6-4.5-1.6-6.3-2.9c-1.8-1.3-3.2-3-4.2-5c-1-2-1.5-4.5-1.5-7.3c0-1.9,0.2-3.6,0.7-5.1 c0.5-1.5,1.1-2.9,2-4.1c0.8-1.2,1.9-2.2,3.1-3.1c1.2-0.9,2.5-1.6,4-2.2c1.5-0.6,3.1-1,4.8-1.3c1.7-0.3,3.5-0.4,5.3-0.4 c2.8,0,5.4,0.3,7.8,1c2.4,0.6,4.5,1.6,6.3,2.9c1.8,1.3,3.2,3,4.2,5C248.4,90.5,248.9,92.9,248.9,95.7z M246,95.7 c0-2.2-0.4-4.2-1.1-5.9c-0.7-1.7-1.8-3.1-3.2-4.3c-1.4-1.2-3.2-2-5.3-2.6c-2.1-0.6-4.5-0.9-7.3-0.9c-2.8,0-5.2,0.3-7.3,0.9 c-2.1,0.6-3.9,1.5-5.3,2.6c-1.4,1.2-2.5,2.6-3.2,4.3c-0.7,1.7-1.1,3.6-1.1,5.8c0,2.2,0.4,4.2,1.1,5.9s1.8,3.1,3.2,4.3 c1.4,1.2,3.2,2,5.3,2.6c2.1,0.6,4.6,0.9,7.3,0.9c2.8,0,5.2-0.3,7.3-0.9c2.1-0.6,3.9-1.5,5.3-2.6c1.4-1.2,2.5-2.6,3.2-4.3 C245.6,99.9,246,97.9,246,95.7z"></path><path class="st2" d="M263.6,82.8v10.8h20.8v2.6h-20.8v15.2h-2.8V80.1h24.7v2.7H263.6z"></path><path class="st2" d="M308.9,82.7v28.6h-2.8V82.7h-14.2v-2.6h31.2v2.6H308.9z"></path></g></svg>