<svg id="extraduty-stacked-logo" xmlns="http://www.w3.org/2000/svg" width="880.1" height="61.8" viewBox="0 0 880.1 61.8">
  <path id="Path_1482" data-name="Path 1482" d="M5.5,30.8C1.8,27.9,0,23.5,0,17.6,0,5.9,7.3,0,22,0H92.4V8.8H22c-5.9,0-8.8,2.9-8.8,8.8s2.9,8.8,8.8,8.8H92.4v8.8H22c-5.9,0-8.8,2.9-8.8,8.8s2.9,8.8,8.8,8.8H92.4v8.8H22C7.3,61.6,0,55.8,0,44,0,38.2,1.8,33.8,5.5,30.8Z"/>
  <path id="Path_1483" data-name="Path 1483" d="M148.1,37.5l-31,24.1H104.5l37.4-29.3L103.9,0h20l28.4,24.2L183.1,0h13.2L158.5,29.4l37.7,32.2H176.5Z"/>
  <path id="Path_1484" data-name="Path 1484" d="M238.6,8.8H207.8V0h74.8V8.8H251.8V61.6H238.6Z"/>
  <path id="Path_1485" data-name="Path 1485" d="M325.9,35.2h-9.8c-5.9,0-8.8,2.9-8.8,8.8V61.6H294.1V44c0-11.7,7.3-17.6,22-17.6h39.6c5.9,0,8.8-2.9,8.8-8.8s-2.9-8.8-8.8-8.8H294.1V0h61.6c14.7,0,22,5.9,22,17.6s-7.3,17.6-22,17.6h-9.8l31.8,26.4H358.5Z"/>
  <path id="Path_1486" data-name="Path 1486" d="M481.6,61.6h-15L460,52.8H405.9l-6.1,8.8H389.2L429,4.4c2-2.9,4.3-4.4,6.9-4.4a3.333,3.333,0,0,1,2.6,1.8ZM432.8,16c-.6-1.2-1.6-.7-3.2,1.6L411.2,44H453Z"/>
  <path id="Path_1487" data-name="Path 1487" d="M140,152.2c0,11.7-7.3,17.6-22,17.6H47.6V161H118c5.9,0,8.8-2.9,8.8-8.8V125.8c0-5.9-2.9-8.8-8.8-8.8H47.6v-8.8H118c14.7,0,22,5.9,22,17.6Z" transform="translate(446 -108)"/>
  <path id="Path_1488" data-name="Path 1488" d="M230.7,108.2h13.2v44c0,11.7-7.3,17.6-22,17.6H173.5c-14.7,0-22-5.9-22-17.6v-44h13.2v44c0,5.9,2.9,8.8,8.8,8.8h48.4c5.9,0,8.8-2.9,8.8-8.8Z" transform="translate(446 -108)"/>
  <path id="Path_1489" data-name="Path 1489" d="M286.2,117H255.4v-8.8h74.8V117H299.4v52.8H286.2Z" transform="translate(446 -108)"/>
  <path id="Path_1490" data-name="Path 1490" d="M381.3,144.3q0-2.85-3.3-5.4l-36.3-30.8h20l28.4,24.2,30.8-24.2h13.2L396.9,137q-2.4,1.95-2.4,7.2v25.5H381.3Z" transform="translate(446 -108)"/>
</svg>
