<svg id="" xmlns="http://www.w3.org/2000/svg" viewBox="0 0 222.72 214.42">
<path class="cls-1" d="M206.83,98.35s-5.26-7.95-18.55-16.78a8.13,8.13,0,0,1-3.55-5.78c-1.38-11.33-8.36-45.67-42.84-61.88A2.71,2.71,0,0,0,138,16.38V30.8a87.86,87.86,0,0,1-9.51-27.13A4.38,4.38,0,0,0,124.2,0H98.54a4.37,4.37,0,0,0-4.33,3.66A88,88,0,0,1,84.69,30.8V16.38a2.71,2.71,0,0,0-3.84-2.47C46.36,30.12,39.38,64.46,38,75.79a8.13,8.13,0,0,1-3.55,5.78C21.16,90.4,15.9,98.35,15.9,98.35,5.81,106.28,0,115.56,0,125.49c0,17.72,18.5,33.4,46.87,42.94.59.94,1.25,1.93,2,3,21.36,35.44,60.27,42.61,61.91,42.9l.64.13h.1l.65-.13c1.65-.29,40.55-7.46,61.91-42.9.74-1.07,1.42-2.09,2-3.05,28.24-9.55,46.65-25.19,46.65-42.86C222.73,115.56,216.92,106.28,206.83,98.35ZM96.51,37.61l.28-.17A28.38,28.38,0,0,1,126,37.05a8.74,8.74,0,0,1,3.25,11.78L122.69,60.7,120.34,65a10,10,0,0,1-17.25.31l-2.51-4.17-7-11.55A8.74,8.74,0,0,1,96.51,37.61Zm77.78,113.82v5.88a75.47,75.47,0,0,1-6,10.19l-.13.2q-1.17,2-2.43,3.77c-18.51,27.12-49,34.7-54,35.79l-.22-.06-.19.06c-5.09-1.1-35.5-8.68-54-35.74q-1.26-1.85-2.45-3.82l-.12-.2a75.46,75.46,0,0,1-6.05-10.19v-5.92h-3.5C39,151.39,33.8,144,33.8,135.21S39,119,45.12,119h3.5V93.23c2-.75,5.36-1.94,9.85-3.26a177.64,177.64,0,0,1,53-7.68,176.94,176.94,0,0,1,53,7.69c4.46,1.31,7.82,2.5,9.81,3.25V119l3.45.06c6.17.09,11.19,7.35,11.19,16.17s-5,16.07-11.19,16.17Z" transform="translate(-0.01 -0.01)"/><path d="M150,124.79c.36,4.75-4.84,9-11.61,9.53s-12.55-2.93-12.91-7.68,4.84-9,11.61-9.54S149.6,120,150,124.79Z" transform="translate(-0.01 -0.01)"/><path d="M85.68,117.1c6.77.51,12,4.78,11.61,9.54s-6.14,8.19-12.91,7.68-12-4.78-11.6-9.53S78.91,116.59,85.68,117.1Z" transform="translate(-0.01 -0.01)"/></svg>