<svg xmlns="http://www.w3.org/2000/svg" viewBox="0 0 209.48 210.57"><path class="cls-1" d="M209.53,41.94l-.29.45a165.37,165.37,0,0,1-30.17,35.48c-17.72-18.22-74.19-18.22-74.19-18.22S48.23,59.65,30.61,78A165.81,165.81,0,0,1,.34,42.39l-.29-.45H4.24C12,40.52,28.18,35.13,61.72,17.51l21.74-12a44.39,44.39,0,0,1,42.85,0l21.73,12c33.52,17.61,49.76,23,57.48,24.43ZM122.69,26.53a8.74,8.74,0,0,0-3.24-11.77,28.35,28.35,0,0,0-29.23.39l-.28.17a8.74,8.74,0,0,0-2.89,11.93l7,11.56L96.52,43a10,10,0,0,0,17.25-.31l2.35-4.26Z" transform="translate(-0.05 -0.02)"/><path class="cls-2" d="M143.39,121c.36,4.75-4.84,9-11.61,9.53s-12.55-2.93-12.91-7.68,4.84-9,11.61-9.54S143,116.19,143.39,121Z" transform="translate(-0.05 -0.02)"/><path class="cls-1" d="M174.72,108.65V84.71l-2.12-.91a123.19,123.19,0,0,0-12.67-4.36,184.67,184.67,0,0,0-55-8,184,184,0,0,0-55,8A123.1,123.1,0,0,0,37.17,83.8l-2.12.91v23.9c-8.44,2.07-14.82,11.49-14.82,22.76s6.38,20.68,14.82,22.75V155l.28.66a75.32,75.32,0,0,0,7,11.95c21.36,35.44,60.27,42.61,61.91,42.9l.64.13h.11l.64-.13c1.64-.29,40.55-7.46,61.91-42.9a75.32,75.32,0,0,0,6.95-11.95l.28-.66v-.87c8.44-2.11,14.64-11.38,14.64-22.71S183.16,110.76,174.72,108.65Zm-3.56,38.89-3.44.05v5.88a74.82,74.82,0,0,1-6.05,10.19l-.12.2c-18.23,30.34-51.49,38.49-56.53,39.57l-.2,0-.12,0c-5.23-1.11-38.26-9.25-56.48-39.56l-.12-.2a75.46,75.46,0,0,1-6.05-10.19v-5.92h-3.5c-6.14,0-11.32-7.41-11.32-16.18s5.18-16.19,11.32-16.19h3.5V89.39l2.34-.85c.77.51,1.54,1,2.32,1.51,17.7,11.27,37.36,17.55,58.08,17.55s40.38-6.28,58.08-17.55c.8-.5,1.59-1,2.38-1.55l2.47.89v25.75l3.44.06c6.18.09,11.2,7.35,11.2,16.17S177.34,147.44,171.16,147.54Z" transform="translate(-0.05 -0.02)"/><path class="cls-2" d="M77.81,130.48C71,130,65.84,125.7,66.2,121s6.14-8.2,12.91-7.69,12,4.78,11.61,9.54S84.58,131,77.81,130.48Z" transform="translate(-0.05 -0.02)"/></svg>