<svg id="logo-eds-text-liquid" xmlns="http://www.w3.org/2000/svg" viewBox="0 0 911.71 61.97">
	<g>
		<path class="cls-1" d="M5.54,31Q0,26.57,0,17.71,0,0,22.14,0H93V8.86H22.14q-8.86,0-8.86,8.85t8.86,8.86H93v8.85H22.14q-8.86,0-8.86,8.85t8.86,8.85H93V62H22.14Q0,62,0,44.27,0,35.42,5.54,31Z" transform="translate(-0.01 -0.01)"/>
		<path class="cls-1" d="M149.19,37.72,118,62h-12.7L143,32.45,104.71,0h20.1l28.54,24.34L184.38,0h13.28L159.6,29.62,197.53,62H177.74Z" transform="translate(-0.01 -0.01)"/>
		<path class="cls-1" d="M240.4,8.86h-31V0h75.25V8.86h-31V62H240.4Z" transform="translate(-0.01 -0.01)"/>
		<path class="cls-1" d="M328.42,35.42h-9.88q-8.85,0-8.85,8.85V62H296.41V44.27q0-17.7,22.13-17.7h39.84q8.85,0,8.85-8.86t-8.85-8.85h-62V0h62q22.13,0,22.13,17.7T358.38,35.42h-9.83l32,26.56h-19.3Z" transform="translate(-0.01 -0.01)"/>
		<path class="cls-1" d="M485.22,62H470.17l-6.64-8.86H409.08L403,62H392.35L432.28,4.43q3-4.42,7-4.42a3.28,3.28,0,0,1,2.61,1.81ZM436.08,16.12c-.56-1.24-1.63-.71-3.23,1.59L414.4,44.27h42Z" transform="translate(-0.01 -0.01)"/>
		<path class="cls-1" d="M615.31,44.27q0,17.7-22.14,17.71H522.36V53.12h70.81q8.87,0,8.86-8.85V17.71q0-8.85-8.86-8.85H522.36V0h70.81q22.14,0,22.14,17.7Z" transform="translate(-0.01 -0.01)"/>
		<path class="cls-1" d="M706.73,0H720V44.27Q720,62,697.88,62H649.19q-22.12,0-22.13-17.71V0h13.28V44.27q0,8.85,8.85,8.85h48.69q8.85,0,8.85-8.85Z" transform="translate(-0.01 -0.01)"/>
		<path class="cls-1" d="M762.75,8.86h-31V0H807V8.86H776V62H762.75Z" transform="translate(-0.01 -0.01)"/>
		<path class="cls-1" d="M858.6,36.39q0-2.84-3.28-5.4L818.76,0h20.1l28.55,24.34L898.44,0h13.27l-37.4,29.08q-2.43,1.9-2.43,7.21V62H858.6Z" transform="translate(-0.01 -0.01)"/>
	</g>
</svg>