<svg id="" xmlns="http://www.w3.org/2000/svg" viewBox="0 0 208.91 226"><path class="cls-1" d="M203.51,143.15c-7.71-16.84-15.44-33.61-17.75-52.24-1.57-12.56-1-24.92,4.34-36.69a44.56,44.56,0,0,1,8.68-12.73c5.93-6.06,6-6.05,1.29-13-3.54-5.24-7.14-10.44-10.64-15.71-1.43-2.15-2.88-3-5.29-1.27-27.22,19.22-59,8.6-79.23-10.54l-1-1-1,1C84.63,19.91,58,26.56,36.17,17.66a49.56,49.56,0,0,1-10.51-5.73c-2.55-1.86-4.3-1.73-6.07,1.1-4.14,6.65-8.43,13.2-12.81,19.69-1.64,2.42-1.35,4,.88,5.91,10.63,9.13,15.21,21.14,16.1,34.82,1.46,22.21-5.67,42.35-14.91,62C5,143.58,1.29,151.7.26,160.85-.9,171.14,2,179.94,9.13,187.35c7.75,8.05,17.66,12.38,28,15.88,14.22,4.83,29,7.52,43.57,11,4.84,1.17,9.63,2.64,14.38,4.17a13.87,13.87,0,0,1,8.85,7.57h1c.77-5,4.91-6.42,8.79-7.85,10-3.69,20.59-5.38,31-7.8,8.76-2,17.53-4,26-6.94,4.08-1.41,8.16-2.91,12.08-4.72C208,187,215.09,168.46,203.51,143.15Zm-69.87-26.34c-5,3.37-5.68,6.6-3.69,12,3.76,10.15,6.81,20.55,10.13,30.85.49,1.53.83,3.11,1.27,4.75-2.57.48-3.71-1.26-5.1-2.25-9.49-6.77-19-13.54-28.31-20.54-2.9-2.17-5-2.19-7.92,0-9.31,7-18.81,13.79-28.28,20.6-1.41,1-2.58,2.62-5.24,2.44.9-3,1.71-5.81,2.61-8.6,3-9.2,5.67-18.48,9-27.53,1.93-5.2,1.19-8.37-3.65-11.58-9.3-6.16-18.12-13-27.09-19.67-1.28-1-2.94-1.56-3.78-3.94H57.18c9,0,18-.16,27,.06,3.84.09,5.7-1.44,6.81-5,3.47-11.13,7.16-22.19,10.82-33.27.5-1.53.62-3.28,2-4.49,1.76.64,1.66,2.37,2.1,3.68,3.6,10.91,7.37,21.78,10.59,32.81,1.43,4.9,3.91,6.43,8.9,6.3,12.79-.32,25.6-.11,38.41-.11l.46,1.21C154.1,102,144.12,109.78,133.64,116.81Z" transform="translate(-0.01 -0.01)"/></svg>