<svg id="logo-eds-liquid" xmlns="http://www.w3.org/2000/svg" viewBox="0 0 911.71 278.06"><g id="Layer_2" data-name="Layer 2"><path class="cls-1" d="M182.93,89.7a159.67,159.67,0,0,1,41.15-10.92,164.34,164.34,0,0,1,41.26,0A159.75,159.75,0,0,1,306.5,89.7V80.32c-1.37-.53-2.78-1-4.22-1.54a172.64,172.64,0,0,0-115.13,0c-1.44.51-2.85,1-4.22,1.54Z" transform="translate(0 -0.01)"/><path class="cls-2" d="M327.94,58.22a4.65,4.65,0,0,1-.41,6.7L313,77.51a172.49,172.49,0,0,0-136.47,0h0L161.93,64.92a4.64,4.64,0,0,1-.4-6.7,34.13,34.13,0,0,0,8.64-18.29c2.37-15.2,1.54-14.93,22.74-16.2s27.76-7.37,27.76-7.37L227,11.6,240.39,1.49A6.93,6.93,0,0,1,243.64.12,6,6,0,0,1,244.75,0a5.86,5.86,0,0,1,1.1.11,6.79,6.79,0,0,1,3.39,1.37L262.53,11.6l4.19,3.18,2.07,1.58a1.41,1.41,0,0,1,.24.2c1.3,1,8.54,6.06,27.53,7.2,21.2,1.24,20.36,1,22.74,16.17A34.13,34.13,0,0,0,327.94,58.22ZM253,40l13.43-9.75H249.84l-5.13-15.77-5.12,15.77H223L236.41,40l-5.12,15.81L244.71,46l13.43,9.78Z" transform="translate(0 -0.01)"/><path class="cls-1" d="M5.54,135.08Q0,130.65,0,121.8q0-17.7,22.14-17.7H93V113H22.14q-8.86,0-8.86,8.85t8.86,8.86H93v8.85H22.14q-8.86,0-8.86,8.85t8.86,8.85H93v8.86H22.14Q0,166.07,0,148.36,0,139.51,5.54,135.08Z" transform="translate(0 -0.01)"/><path class="cls-1" d="M149.19,141.81,118,166.07h-12.7L143,136.54,104.71,104.1H124.8l28.55,24.34,31-24.34h13.28l-38.07,29.61,37.94,32.36H177.74Z" transform="translate(0 -0.01)"/><path class="cls-1" d="M240.4,113h-31V104.1h75.25V113h-31v53.12H240.4Z" transform="translate(0 -0.01)"/><path class="cls-1" d="M328.41,139.51h-9.87q-8.85,0-8.85,8.85v17.71H296.41V148.36q0-17.7,22.13-17.7h39.84q8.85,0,8.85-8.86T358.38,113h-62V104.1h62q22.13,0,22.13,17.7t-22.13,17.71h-9.83l32,26.56h-19.3Z" transform="translate(0 -0.01)"/><path class="cls-1" d="M485.21,166.07h-15l-6.64-8.86H409.08l-6.1,8.86H392.35l39.93-57.54q3-4.43,7-4.43a3.28,3.28,0,0,1,2.61,1.81Zm-49.13-45.86c-.56-1.24-1.63-.71-3.23,1.59L414.4,148.36h42Z" transform="translate(0 -0.01)"/><path class="cls-1" d="M615.31,148.36q0,17.71-22.14,17.71H522.35v-8.86h70.82q8.87,0,8.86-8.85V121.8q0-8.85-8.86-8.85H522.35V104.1h70.82q22.14,0,22.14,17.7Z" transform="translate(0 -0.01)"/><path class="cls-1" d="M706.73,104.1H720v44.26q0,17.71-22.13,17.71H649.19q-22.12,0-22.13-17.71V104.1h13.28v44.26q0,8.85,8.85,8.85h48.69q8.85,0,8.85-8.85Z" transform="translate(0 -0.01)"/><path class="cls-1" d="M762.75,113h-31V104.1H807V113H776v53.12H762.75Z" transform="translate(0 -0.01)"/><path class="cls-1" d="M858.6,140.48c0-1.88-1.09-3.69-3.28-5.4l-36.56-31h20.1l28.55,24.34,31-24.34h13.28l-37.4,29.08q-2.43,1.9-2.43,7.21v25.68H858.6Z" transform="translate(0 -0.01)"/><path class="cls-1" d="M173.73,226.53l4-5.09a23,23,0,0,0,7.12,5.5,20.68,20.68,0,0,0,9.5,2.16,18.61,18.61,0,0,0,5.92-.86,9.86,9.86,0,0,0,3.92-2.25,9.51,9.51,0,0,0,2-2.94,8.18,8.18,0,0,0,.64-3.21,6.91,6.91,0,0,0-1.06-3.83,8.2,8.2,0,0,0-2.89-2.68,19.57,19.57,0,0,0-4.21-1.73l-5-1.46-5.18-1.52a33.32,33.32,0,0,1-4.95-1.89,21.14,21.14,0,0,1-4.17-2.63,10.51,10.51,0,0,1-2.89-3.87,13.66,13.66,0,0,1,4.11-16q5.19-4.12,13.11-4.12,11.64,0,18.75,7.42l-4,4.86Q202.86,186,193.14,186a12.43,12.43,0,0,0-7.82,2.38,7.4,7.4,0,0,0-3.09,6.14,5.58,5.58,0,0,0,1.07,3.38,7.77,7.77,0,0,0,2.87,2.37,23.8,23.8,0,0,0,4.19,1.62l5,1.46,5.21,1.52a27.69,27.69,0,0,1,4.94,2,20.75,20.75,0,0,1,4.19,2.82,11.22,11.22,0,0,1,2.89,4.07,13.93,13.93,0,0,1,1.07,5.63,15.16,15.16,0,0,1-1.08,5.72,14.68,14.68,0,0,1-9.42,8.57,28,28,0,0,1-9.06,1.34,28.78,28.78,0,0,1-11.71-2.27A24.84,24.84,0,0,1,173.73,226.53Z" transform="translate(0 -0.01)"/><path class="cls-1" d="M239.88,221.57a31.6,31.6,0,0,1,0-28,24.35,24.35,0,0,1,9.3-9.84,28.09,28.09,0,0,1,27.48,0,24.59,24.59,0,0,1,9.37,9.84,31.43,31.43,0,0,1,0,28,24.71,24.71,0,0,1-9.37,9.84,28.09,28.09,0,0,1-27.48,0A24.48,24.48,0,0,1,239.88,221.57Zm3.55-14a25.14,25.14,0,0,0,2.36,11,18.14,18.14,0,0,0,6.82,7.7,20.24,20.24,0,0,0,20.61,0,18.34,18.34,0,0,0,6.88-7.7,24.74,24.74,0,0,0,2.39-11q0-9.39-5.4-15.47A18.07,18.07,0,0,0,262.91,186q-8.84,0-14.15,6.06T243.43,207.55Z" transform="translate(0 -0.01)"/><path class="cls-1" d="M314,234V181h6.6v47.14h24.66V234Z" transform="translate(0 -0.01)"/><path class="cls-1" d="M369.29,213.45V181h6.6v32.27q0,7.41,3.87,11.63t11.1,4.21q7.23,0,11.14-4.23t3.91-11.61V181h6.6v32.38q0,10.14-5.54,15.88T390.86,235q-10.5,0-16-5.77T369.29,213.45Z" transform="translate(0 -0.01)"/><path class="cls-1" d="M436.63,186.89V181h40.22v5.9H460V234h-6.6V186.89Z" transform="translate(0 -0.01)"/><path class="cls-1" d="M500.86,234V181h6.6v53Z" transform="translate(0 -0.01)"/><path class="cls-1" d="M536.21,221.57a31.69,31.69,0,0,1,0-28,24.44,24.44,0,0,1,9.31-9.84,28.09,28.09,0,0,1,27.48,0,24.5,24.5,0,0,1,9.36,9.84,31.43,31.43,0,0,1,0,28,24.62,24.62,0,0,1-9.36,9.84,28.09,28.09,0,0,1-27.48,0A24.57,24.57,0,0,1,536.21,221.57Zm3.56-14a25.14,25.14,0,0,0,2.35,11,18.21,18.21,0,0,0,6.82,7.7,20.26,20.26,0,0,0,20.62,0,18.41,18.41,0,0,0,6.88-7.7,24.88,24.88,0,0,0,2.39-11q0-9.39-5.4-15.47A18.08,18.08,0,0,0,559.24,186q-8.82,0-14.15,6.06T539.77,207.55Z" transform="translate(0 -0.01)"/><path class="cls-1" d="M611.18,234V181h6.76l30.52,41.43V181h6.6v53h-6.37l-30.91-42.32V234Z" transform="translate(0 -0.01)"/><path class="cls-1" d="M679.53,226.53l4-5.09a22.93,22.93,0,0,0,7.12,5.5,20.68,20.68,0,0,0,9.5,2.16,18.61,18.61,0,0,0,5.92-.86A9.86,9.86,0,0,0,710,226a9.51,9.51,0,0,0,2-2.94,8.18,8.18,0,0,0,.64-3.21,6.92,6.92,0,0,0-1.07-3.83,8.08,8.08,0,0,0-2.88-2.68,19.57,19.57,0,0,0-4.21-1.73l-5-1.46-5.18-1.52a33.32,33.32,0,0,1-4.95-1.89,20.85,20.85,0,0,1-4.17-2.63,10.51,10.51,0,0,1-2.89-3.87,13.66,13.66,0,0,1,4.11-16q5.19-4.12,13.11-4.12,11.64,0,18.75,7.42l-4,4.86Q708.66,186,698.94,186a12.41,12.41,0,0,0-7.82,2.38,7.4,7.4,0,0,0-3.09,6.14,5.64,5.64,0,0,0,1.06,3.38,7.89,7.89,0,0,0,2.88,2.37,23.8,23.8,0,0,0,4.19,1.62l5,1.46,5.21,1.52a28,28,0,0,1,4.94,2,20.75,20.75,0,0,1,4.19,2.82,11.22,11.22,0,0,1,2.89,4.07,13.93,13.93,0,0,1,1.07,5.63,15.16,15.16,0,0,1-1.08,5.72,14.68,14.68,0,0,1-9.42,8.57,28,28,0,0,1-9.07,1.34,28.77,28.77,0,0,1-11.7-2.27A24.84,24.84,0,0,1,679.53,226.53Z" transform="translate(0 -0.01)"/><path class="cls-1" d="M177.27,277.68l8.86-22h3.4l8.83,22h-3.12l-2-4.88H182.35l-1.94,4.88Zm5.91-7.32h9.32l-4.68-11.86Z" transform="translate(0 -0.01)"/><path class="cls-1" d="M222.4,277.68v-22h2.73v9.44H238v-9.44h2.73v22H238V267.59H225.13v10.09Z" transform="translate(0 -0.01)"/><path class="cls-1" d="M249.89,277.68l8.86-22h3.4l8.83,22h-3.12l-1.95-4.88H255L253,277.68Zm5.9-7.32h9.33l-4.68-11.86Z" transform="translate(0 -0.01)"/><path class="cls-1" d="M280.16,277.68v-22H289a7,7,0,0,1,5,1.8,6.3,6.3,0,0,1,1.93,4.82,7.25,7.25,0,0,1-.47,2.64,5.84,5.84,0,0,1-1.28,2,6.5,6.5,0,0,1-1.83,1.24,6.38,6.38,0,0,1-2.16.56l5.93,8.92h-3.23L287.31,269H282.9v8.69Zm2.74-11.13h5.76a4.43,4.43,0,0,0,3.18-1.18,4.33,4.33,0,0,0,0-6.06,4.47,4.47,0,0,0-3.19-1.16H282.9Z" transform="translate(0 -0.01)"/><path class="cls-1" d="M305,258.15v-2.44H321.7v2.44h-7v19.53H312V258.15Z" transform="translate(0 -0.01)"/><path class="cls-1" d="M346.49,277.68v-22h2.74v9.44h12.83v-9.44h2.74v22h-2.74V267.59H349.23v10.09Z" transform="translate(0 -0.01)"/><path class="cls-1" d="M374,277.68l8.86-22h3.39l8.83,22H392L390,272.8H379.07l-1.95,4.88Zm5.9-7.32h9.33l-4.68-11.86Z" transform="translate(0 -0.01)"/><path class="cls-1" d="M403.89,277.68v-22h2.74v19.52h10.21v2.45Z" transform="translate(0 -0.01)"/><path class="cls-1" d="M425.5,274.57l1.64-2.11a9.51,9.51,0,0,0,2.95,2.28,8.48,8.48,0,0,0,3.93.89,7.58,7.58,0,0,0,2.45-.35,4.14,4.14,0,0,0,1.63-.93,3.84,3.84,0,0,0,.83-1.22,3.4,3.4,0,0,0,.27-1.33,2.92,2.92,0,0,0-.44-1.59,3.47,3.47,0,0,0-1.2-1.11,8.76,8.76,0,0,0-1.74-.72l-2.07-.6-2.14-.63a13.57,13.57,0,0,1-2.05-.78,8.49,8.49,0,0,1-1.73-1.09,4.41,4.41,0,0,1-1.2-1.6,5.49,5.49,0,0,1-.44-2.24,5.34,5.34,0,0,1,2.15-4.4,8.42,8.42,0,0,1,5.42-1.7,10.25,10.25,0,0,1,7.77,3.07l-1.64,2a8,8,0,0,0-6.35-2.64,5.18,5.18,0,0,0-3.24,1,3.09,3.09,0,0,0-1.28,2.55,2.33,2.33,0,0,0,.44,1.4,3.22,3.22,0,0,0,1.19,1,9.61,9.61,0,0,0,1.73.67l2.07.61,2.16.63a11.39,11.39,0,0,1,2.05.82,8.57,8.57,0,0,1,1.73,1.16,4.89,4.89,0,0,1,1.2,1.69,5.92,5.92,0,0,1,.44,2.34,6.16,6.16,0,0,1-1.82,4.42,6.38,6.38,0,0,1-2.53,1.49,11.58,11.58,0,0,1-3.76.56,12,12,0,0,1-4.84-.94A10.24,10.24,0,0,1,425.5,274.57Z" transform="translate(0 -0.01)"/><path class="cls-1" d="M452.44,277.68v-22h14.4v2.44H455.18v7.06H466.6v2.45H455.18v7.57h11.66v2.45Z" transform="translate(0 -0.01)"/><path class="cls-1" d="M475.22,255.71h3.2l6.82,10.21,6.82-10.21h3.2l-8.63,12.67v9.3h-2.74v-9.3Z" transform="translate(0 -0.01)"/><path class="cls-1" d="M519.28,271.32a12.54,12.54,0,0,1,0-9.23,10.54,10.54,0,0,1,2.39-3.61,10.87,10.87,0,0,1,3.59-2.31,11.75,11.75,0,0,1,4.43-.83,9.62,9.62,0,0,1,8.33,4.35L535.76,261a7.39,7.39,0,0,0-6.07-3.2,8.06,8.06,0,0,0-6.05,2.5,8.91,8.91,0,0,0-2.41,6.43,9.55,9.55,0,0,0,1.11,4.61,8.09,8.09,0,0,0,3,3.18,8.31,8.31,0,0,0,4.31,1.13,7.43,7.43,0,0,0,6.07-3.2l2.3,1.26a9.91,9.91,0,0,1-8.37,4.39,11.75,11.75,0,0,1-4.43-.84,10.71,10.71,0,0,1-3.59-2.31A10.54,10.54,0,0,1,519.28,271.32Z" transform="translate(0 -0.01)"/><path class="cls-1" d="M548.34,272.51a13.16,13.16,0,0,1,0-11.61,10.11,10.11,0,0,1,3.86-4.08,11.68,11.68,0,0,1,11.38,0,10.1,10.1,0,0,1,3.88,4.08,13,13,0,0,1,0,11.61,10.1,10.1,0,0,1-3.88,4.08,11.61,11.61,0,0,1-11.38,0A10.11,10.11,0,0,1,548.34,272.51Zm1.48-5.8a10.45,10.45,0,0,0,1,4.57,7.55,7.55,0,0,0,2.83,3.19,7.78,7.78,0,0,0,4.26,1.16,7.87,7.87,0,0,0,4.28-1.16,7.66,7.66,0,0,0,2.85-3.19,10.32,10.32,0,0,0,1-4.57,9.29,9.29,0,0,0-2.24-6.41,8.11,8.11,0,0,0-11.74,0A9.36,9.36,0,0,0,549.82,266.71Z" transform="translate(0 -0.01)"/><path class="cls-1" d="M579.4,277.68v-22h3.91l6.85,16.93L597,255.71h3.93v22h-2.74V259.2l-7.44,18.48h-1.11l-7.48-18.48v18.48Z" transform="translate(0 -0.01)"/><path class="cls-1" d="M612.36,277.68v-22h8.83a6.7,6.7,0,0,1,5,1.9,6.93,6.93,0,0,1,0,9.44,6.7,6.7,0,0,1-5,1.91H615.1v8.72Zm2.74-11.17h5.76a4.41,4.41,0,0,0,3.16-1.15,4.33,4.33,0,0,0,0-6.05,4.41,4.41,0,0,0-3.16-1.16H615.1Z" transform="translate(0 -0.01)"/><path class="cls-1" d="M635.74,277.68l8.86-22H648l8.84,22H653.7l-1.94-4.88H640.82l-2,4.88Zm5.9-7.32H651l-4.68-11.86Z" transform="translate(0 -0.01)"/><path class="cls-1" d="M666,277.68v-22h2.8l12.64,17.16V255.71h2.74v22h-2.64l-12.8-17.54v17.54Z" transform="translate(0 -0.01)"/><path class="cls-1" d="M693.36,255.71h3.2l6.82,10.21,6.82-10.21h3.2l-8.64,12.67v9.3H702v-9.3Z" transform="translate(0 -0.01)"/></g></svg>