<svg id="logo-eds-textbottom-liquid" xmlns="http://www.w3.org/2000/svg" viewBox="0 0 545.71 97.98">
	<g>
		<path class="cls-1" d="M0,46.43l4-5.09a22.93,22.93,0,0,0,7.12,5.5A20.64,20.64,0,0,0,20.58,49a18.53,18.53,0,0,0,5.92-.85,9.84,9.84,0,0,0,3.93-2.26,9.28,9.28,0,0,0,2-2.94,8.36,8.36,0,0,0,.64-3.21A6.92,6.92,0,0,0,32,35.91a8.12,8.12,0,0,0-2.89-2.68,19.36,19.36,0,0,0-4.21-1.73l-5-1.46-5.19-1.52a31.74,31.74,0,0,1-4.94-1.89A20.14,20.14,0,0,1,5.64,24a10.45,10.45,0,0,1-2.9-3.87,13,13,0,0,1-1.07-5.4A12.93,12.93,0,0,1,6.86,4.12Q12,0,20,0,31.62,0,38.72,7.42l-4,4.86Q29.12,5.9,19.42,5.9A12.39,12.39,0,0,0,11.6,8.28a7.4,7.4,0,0,0-3.09,6.14A5.55,5.55,0,0,0,9.57,17.8a7.89,7.89,0,0,0,2.88,2.37,23.68,23.68,0,0,0,4.18,1.62l5,1.46,5.2,1.52a28.1,28.1,0,0,1,4.95,2A20.67,20.67,0,0,1,36,29.57a11.21,11.21,0,0,1,2.9,4.07,14.15,14.15,0,0,1,1.07,5.64A15,15,0,0,1,38.83,45a14.63,14.63,0,0,1-9.41,8.57,27.76,27.76,0,0,1-9.07,1.34A28.81,28.81,0,0,1,8.64,52.63,24.71,24.71,0,0,1,0,46.43Z" transform="translate(0)"/>
		<path class="cls-1" d="M66.15,41.47a29.79,29.79,0,0,1-3.27-14,29.79,29.79,0,0,1,3.27-14,24.57,24.57,0,0,1,9.31-9.84,28.09,28.09,0,0,1,27.48,0,24.62,24.62,0,0,1,9.36,9.84,29.57,29.57,0,0,1,3.3,14,29.57,29.57,0,0,1-3.3,14,24.5,24.5,0,0,1-9.36,9.84A26.42,26.42,0,0,1,89.18,54.9a26.23,26.23,0,0,1-13.72-3.59A24.44,24.44,0,0,1,66.15,41.47Zm3.56-14a25.11,25.11,0,0,0,2.35,11,18.29,18.29,0,0,0,6.82,7.71,20.32,20.32,0,0,0,20.62,0,18.5,18.5,0,0,0,6.88-7.71,24.85,24.85,0,0,0,2.39-11q0-9.39-5.4-15.47A18.08,18.08,0,0,0,89.18,5.9Q80.36,5.9,75,12T69.71,27.45Z" transform="translate(0)"/>
		<path class="cls-1" d="M140.23,53.93V.89h6.6V48h24.66v5.9Z" transform="translate(0)"/>
		<path class="cls-1" d="M195.57,33.35V.89h6.6V33.16q0,7.41,3.87,11.63T217.14,49q7.23,0,11.13-4.23t3.91-11.61V.89h6.6V33.28q0,10.13-5.54,15.88t-16.1,5.74q-10.5,0-16-5.76T195.57,33.35Z" transform="translate(0)"/>
		<path class="cls-1" d="M262.9,6.79V.89h40.23v5.9H286.28V53.93h-6.6V6.79Z" transform="translate(0)"/>
		<path class="cls-1" d="M327.13,53.93V.89h6.6v53Z" transform="translate(0)"/>
		<path class="cls-1" d="M362.49,41.47a29.68,29.68,0,0,1-3.28-14,29.68,29.68,0,0,1,3.28-14,24.48,24.48,0,0,1,9.3-9.84,28.09,28.09,0,0,1,27.48,0,24.65,24.65,0,0,1,9.37,9.84,29.57,29.57,0,0,1,3.3,14,29.57,29.57,0,0,1-3.3,14,24.52,24.52,0,0,1-9.37,9.84,28.09,28.09,0,0,1-27.48,0A24.35,24.35,0,0,1,362.49,41.47Zm3.56-14a25.11,25.11,0,0,0,2.35,11,18.23,18.23,0,0,0,6.82,7.71,20.32,20.32,0,0,0,20.62,0,18.56,18.56,0,0,0,6.88-7.71,24.85,24.85,0,0,0,2.39-11q0-9.39-5.41-15.47A18.07,18.07,0,0,0,385.52,5.9q-8.82,0-14.15,6.06T366.05,27.45Z" transform="translate(0)"/>
		<path class="cls-1" d="M437.46,53.93V.89h6.75l30.52,41.43V.89h6.6v53H475L444.06,11.61V53.93Z" transform="translate(0)"/>
		<path class="cls-1" d="M505.8,46.43l4-5.09a23,23,0,0,0,7.13,5.5A20.64,20.64,0,0,0,526.38,49a18.58,18.58,0,0,0,5.92-.85,9.84,9.84,0,0,0,3.93-2.26,9.24,9.24,0,0,0,2-2.94,8.18,8.18,0,0,0,.64-3.21,6.91,6.91,0,0,0-1.06-3.83,8.12,8.12,0,0,0-2.89-2.68,19.36,19.36,0,0,0-4.21-1.73l-5-1.46-5.19-1.52a31.74,31.74,0,0,1-4.94-1.89A20.49,20.49,0,0,1,511.43,24a10.53,10.53,0,0,1-2.89-3.87,13,13,0,0,1-1.07-5.4,12.93,12.93,0,0,1,5.19-10.61Q517.84,0,525.76,0q11.65,0,18.76,7.42l-4,4.86Q534.92,5.9,525.22,5.9a12.44,12.44,0,0,0-7.83,2.38,7.41,7.41,0,0,0-3.08,6.14,5.55,5.55,0,0,0,1.06,3.38,7.89,7.89,0,0,0,2.88,2.37,23.68,23.68,0,0,0,4.18,1.62l5,1.46,5.21,1.52a28.1,28.1,0,0,1,5,2,20.67,20.67,0,0,1,4.18,2.82,11.21,11.21,0,0,1,2.9,4.07,14.15,14.15,0,0,1,1.07,5.64A15,15,0,0,1,544.63,45a14.63,14.63,0,0,1-9.41,8.57,27.8,27.8,0,0,1-9.07,1.34,28.78,28.78,0,0,1-11.71-2.27A24.71,24.71,0,0,1,505.8,46.43Z" transform="translate(0)"/>
		<path class="cls-1" d="M4.8,97.58l8.86-22h3.39l8.83,22H22.76l-1.94-4.87H9.88l-2,4.87Zm5.9-7.32H20L15.35,78.41Z" transform="translate(0)"/>
		<path class="cls-1" d="M49.92,97.58v-22h2.74v9.44H65.49V75.61h2.74v22H65.49V87.49H52.66V97.58Z" transform="translate(0)"/>
		<path class="cls-1" d="M77.41,97.58l8.87-22h3.39l8.83,22H95.38l-1.95-4.87H82.5l-2,4.87Zm5.91-7.32h9.33L88,78.41Z" transform="translate(0)"/>
		<path class="cls-1" d="M107.69,97.58v-22h8.83a7,7,0,0,1,5,1.81,6.3,6.3,0,0,1,1.93,4.81,7,7,0,0,1-.48,2.64,5.55,5.55,0,0,1-1.28,2,6.12,6.12,0,0,1-1.82,1.24,6.38,6.38,0,0,1-2.17.56l5.94,8.92H120.4l-5.57-8.69h-4.41v8.69Zm2.73-11.13h5.76a4.43,4.43,0,0,0,3.19-1.18,4,4,0,0,0,1.24-3,4,4,0,0,0-1.23-3,4.51,4.51,0,0,0-3.2-1.16h-5.76Z" transform="translate(0)"/>
		<path class="cls-1" d="M132.56,78.05V75.61h16.66v2.44h-7V97.58h-2.73V78.05Z" transform="translate(0)"/>
		<path class="cls-1" d="M174,97.58v-22h2.73v9.44h12.84V75.61h2.73v22h-2.73V87.49H176.75V97.58Z" transform="translate(0)"/>
		<path class="cls-1" d="M201.51,97.58l8.86-22h3.4l8.83,22h-3.12l-1.95-4.87H206.59l-1.94,4.87Zm5.9-7.32h9.33l-4.68-11.85Z" transform="translate(0)"/>
		<path class="cls-1" d="M231.42,97.58v-22h2.73V95.13h10.21v2.45Z" transform="translate(0)"/>
		<path class="cls-1" d="M253,94.47l1.64-2.11a9.33,9.33,0,0,0,3,2.28,8.56,8.56,0,0,0,3.94.9,7.57,7.57,0,0,0,2.45-.36,4,4,0,0,0,1.62-.93,3.93,3.93,0,0,0,.84-1.22,3.36,3.36,0,0,0,.27-1.33,2.85,2.85,0,0,0-.45-1.59A3.44,3.44,0,0,0,265.09,89a8.52,8.52,0,0,0-1.75-.71l-2.06-.61-2.15-.63a13.57,13.57,0,0,1-2.05-.78,8.78,8.78,0,0,1-1.73-1.09,4.53,4.53,0,0,1-1.2-1.6,5.46,5.46,0,0,1-.44-2.24,5.39,5.39,0,0,1,2.15-4.4,8.49,8.49,0,0,1,5.43-1.7,10.25,10.25,0,0,1,7.77,3.07l-1.64,2a8,8,0,0,0-6.36-2.65,5.13,5.13,0,0,0-3.24,1,3.06,3.06,0,0,0-1.28,2.54,2.33,2.33,0,0,0,.44,1.4,3.26,3.26,0,0,0,1.2,1,9.32,9.32,0,0,0,1.73.67l2.06.61,2.16.63a11.1,11.1,0,0,1,2.05.82,8,8,0,0,1,1.73,1.17,4.52,4.52,0,0,1,1.2,1.68,5.78,5.78,0,0,1,.45,2.34,6.28,6.28,0,0,1-.45,2.37,6.11,6.11,0,0,1-3.9,3.55,11.59,11.59,0,0,1-3.76.55A11.86,11.86,0,0,1,256.6,97,10.29,10.29,0,0,1,253,94.47Z" transform="translate(0)"/>
		<path class="cls-1" d="M280,97.58v-22h14.39v2.44H282.7v7.06h11.42v2.45H282.7v7.57h11.66v2.45Z" transform="translate(0)"/>
		<path class="cls-1" d="M302.75,75.61H306l6.82,10.21,6.82-10.21h3.2l-8.64,12.67v9.3h-2.73v-9.3Z" transform="translate(0)"/>
		<path class="cls-1" d="M346.8,91.23a12.57,12.57,0,0,1,0-9.24,10.79,10.79,0,0,1,2.39-3.61,11,11,0,0,1,3.6-2.31,11.87,11.87,0,0,1,4.43-.83,9.63,9.63,0,0,1,8.33,4.36l-2.27,1.28a7.39,7.39,0,0,0-6.06-3.2,8.08,8.08,0,0,0-6.05,2.5,8.87,8.87,0,0,0-2.41,6.43,9.55,9.55,0,0,0,1.11,4.61,8,8,0,0,0,3,3.18,8.29,8.29,0,0,0,4.31,1.14,7.47,7.47,0,0,0,6.06-3.21l2.3,1.26A9.88,9.88,0,0,1,357.22,98a11.68,11.68,0,0,1-4.43-.84,10.38,10.38,0,0,1-6-5.91Z" transform="translate(0)"/>
		<path class="cls-1" d="M375.87,92.42a13.09,13.09,0,0,1,0-11.62,10.22,10.22,0,0,1,3.85-4.08,11.7,11.7,0,0,1,11.39,0A10.36,10.36,0,0,1,395,80.8a13.09,13.09,0,0,1,0,11.62,10.27,10.27,0,0,1-3.88,4.07,11.63,11.63,0,0,1-11.39,0A10.13,10.13,0,0,1,375.87,92.42Zm1.47-5.81a10.42,10.42,0,0,0,1,4.57,7.59,7.59,0,0,0,2.82,3.19,8.38,8.38,0,0,0,8.54,0,7.66,7.66,0,0,0,2.85-3.19,10.29,10.29,0,0,0,1-4.57,9.29,9.29,0,0,0-2.23-6.41,8.11,8.11,0,0,0-11.74,0A9.36,9.36,0,0,0,377.34,86.61Z" transform="translate(0)"/>
		<path class="cls-1" d="M406.93,97.58v-22h3.91l6.85,16.93,6.82-16.93h3.92v22H425.7V79.1l-7.45,18.48h-1.11L409.66,79.1V97.58Z" transform="translate(0)"/>
		<path class="cls-1" d="M439.89,97.58v-22h8.83a6.68,6.68,0,0,1,5,1.9,6.93,6.93,0,0,1,0,9.44,6.68,6.68,0,0,1-5,1.91h-6.1v8.72Zm2.73-11.16h5.76a4.44,4.44,0,0,0,3.17-1.16,4.36,4.36,0,0,0,0-6.05,4.44,4.44,0,0,0-3.17-1.16h-5.76Z" transform="translate(0)"/>
		<path class="cls-1" d="M463.26,97.58l8.87-22h3.39l8.83,22h-3.12l-2-4.87H468.34l-1.94,4.87Zm5.91-7.32h9.32l-4.68-11.85Z" transform="translate(0)"/>
		<path class="cls-1" d="M493.54,97.58v-22h2.8L509,92.77V75.61h2.73v22h-2.63L496.27,80.05V97.58Z" transform="translate(0)"/>
		<path class="cls-1" d="M520.88,75.61h3.21l6.82,10.21,6.82-10.21h3.2l-8.64,12.67v9.3h-2.74v-9.3Z" transform="translate(0)"/>
	</g>
</svg>