<svg id="" data-name="Layer 1" xmlns="http://www.w3.org/2000/svg" viewBox="0 0 220.56 220.56"><path class="cls-1" d="M217.14,89.7a52,52,0,0,1,3.37,21.19,52,52,0,0,1-3.37,21.19c-4.7,12-10.13,11.67-14.07,22.5-5,13.77.18,25.36-6.65,28.78l0,0a7.29,7.29,0,0,1-8.34-1.46L156,149.83a60.25,60.25,0,0,1-5.91,5.94L182.32,188a7.3,7.3,0,0,1,1.46,8.34.05.05,0,0,0,0,0c-3.42,6.83-15,1.64-28.79,6.65-10.83,3.94-10.52,9.37-22.5,14.06a51.8,51.8,0,0,1-21.18,3.38,51.84,51.84,0,0,1-21.19-3.38c-12-4.69-11.67-10.12-22.5-14.06-13.77-5-25.36.18-28.78-6.65,0,0,0,0,0,0A7.28,7.28,0,0,1,40.25,188L71.6,156.69a60.3,60.3,0,0,1-7-6.86L32.53,181.92a7.27,7.27,0,0,1-8.33,1.46l0,0c-6.84-3.42-1.65-15-6.66-28.78-3.94-10.83-9.37-10.53-14.06-22.5A52,52,0,0,1,.06,110.89,52,52,0,0,1,3.44,89.7C8.13,77.73,13.56,78,17.5,67.2c5-13.77-.18-25.36,6.66-28.78l0,0a7.27,7.27,0,0,1,8.33,1.46L64.06,71.39a60.78,60.78,0,0,1,7.54-7.51L40.25,32.53A7.26,7.26,0,0,1,38.8,24.2l0,0c3.42-6.84,15-1.65,28.78-6.66C78.43,13.56,78.13,8.13,90.1,3.44A52,52,0,0,1,111.29.06a52,52,0,0,1,21.18,3.38c12,4.69,11.67,10.12,22.5,14.06,13.77,5,25.37-.18,28.79,6.66,0,0,0,0,0,0a7.28,7.28,0,0,1-1.46,8.33L150,64.81a60,60,0,0,1,6.47,6.58L188,39.86a7.29,7.29,0,0,1,8.34-1.46l0,0c6.83,3.42,1.64,15,6.65,28.78C207,78,212.44,77.73,217.14,89.7Zm-50,20.84a57,57,0,0,0-56.77-57.15c-31.3,0-57,25.46-57,56.64a57,57,0,0,0,56.77,57.15C141.46,167.21,167.13,141.71,167.18,110.54Z" transform="translate(-0.01 -0.01)"/><path class="cls-2" d="M145.62,115.65c1.28,11.62-3.38,20.9-12,28.36a40.79,40.79,0,0,1-9.58,6.54,38.05,38.05,0,0,0,3.23-15.85c-.38-11.83-4.81-21.8-13.66-29.73-.61-.55-1.21-1.54-2.15-1.06-.78.39-.4,1.41-.41,2.15a32,32,0,0,1-5.93,18.75c-.25-3.42-.44-6.24-1.64-8.83-.25-.53-.41-1.29-1.1-1.3s-.72.85-.9,1.38a45.82,45.82,0,0,1-5.91,12.06c-4.43,6.38-5.31,13.18-2.33,20.42a1.46,1.46,0,0,1,0,1.7,43,43,0,0,1-7.84-5.19c-6.72-5.39-11.28-11.88-10.6-21.05a34.39,34.39,0,0,1,3.18-12c2.56-5.54,5.82-10.78,7.06-17.55,2.77,3.91,2.33,8,3.29,11.72.27,0,.51,0,.58-.07,7.21-8.77,13.34-18.1,15.21-29.59a24.92,24.92,0,0,0,.25-4.65c-.05-2,.68-2.27,2.3-1.34a37,37,0,0,1,11.81,10.71A53.91,53.91,0,0,1,126,96.84c.22.72.21,1.77,1.08,1.91,1.05.17,1.37-.92,1.74-1.65a13.75,13.75,0,0,0,.91-9.59c-.1-.4-.34-.82.14-1.36a31.75,31.75,0,0,1,5.51,6C140.73,99.15,144.64,106.83,145.62,115.65Z" transform="translate(-0.01 -0.01)"/></svg>